<mxfile host="app.diagrams.net" agent="Mozilla/5.0 (Windows NT 10.0; Win64; x64; rv:131.0) Gecko/20100101 Firefox/131.0" version="24.7.17">
  <diagram id="C5RBs43oDa-KdzZeNtuy" name="Page-1">
    <mxGraphModel dx="1434" dy="782" grid="1" gridSize="10" guides="1" tooltips="1" connect="1" arrows="1" fold="1" page="1" pageScale="1" pageWidth="827" pageHeight="1169" math="0" shadow="0">
      <root>
        <mxCell id="WIyWlLk6GJQsqaUBKTNV-0" />
        <mxCell id="WIyWlLk6GJQsqaUBKTNV-1" parent="WIyWlLk6GJQsqaUBKTNV-0" />
        <mxCell id="vJepG9H-DPYFJKu3vZ0g-0" value="&lt;font style=&quot;font-size: 36px;&quot;&gt;&lt;b&gt;&lt;u&gt;Manager&lt;/u&gt;&lt;/b&gt;&lt;/font&gt;" style="text;html=1;align=center;verticalAlign=middle;resizable=0;points=[];autosize=1;strokeColor=none;fillColor=none;" vertex="1" parent="WIyWlLk6GJQsqaUBKTNV-1">
          <mxGeometry x="95" y="3" width="170" height="60" as="geometry" />
        </mxCell>
        <mxCell id="vJepG9H-DPYFJKu3vZ0g-1" value="&lt;b&gt;&lt;u&gt;&lt;font style=&quot;font-size: 36px;&quot;&gt;System&lt;/font&gt;&lt;/u&gt;&lt;/b&gt;" style="text;html=1;align=center;verticalAlign=middle;resizable=0;points=[];autosize=1;strokeColor=none;fillColor=none;" vertex="1" parent="WIyWlLk6GJQsqaUBKTNV-1">
          <mxGeometry x="515" y="3" width="150" height="60" as="geometry" />
        </mxCell>
        <mxCell id="vJepG9H-DPYFJKu3vZ0g-3" value="" style="endArrow=none;html=1;rounded=0;" edge="1" parent="WIyWlLk6GJQsqaUBKTNV-1">
          <mxGeometry width="50" height="50" relative="1" as="geometry">
            <mxPoint x="400" y="953" as="sourcePoint" />
            <mxPoint x="400" as="targetPoint" />
          </mxGeometry>
        </mxCell>
        <mxCell id="vJepG9H-DPYFJKu3vZ0g-5" style="edgeStyle=orthogonalEdgeStyle;rounded=0;orthogonalLoop=1;jettySize=auto;html=1;exitX=1;exitY=0.5;exitDx=0;exitDy=0;" edge="1" parent="WIyWlLk6GJQsqaUBKTNV-1" source="vJepG9H-DPYFJKu3vZ0g-4">
          <mxGeometry relative="1" as="geometry">
            <mxPoint x="530" y="135" as="targetPoint" />
          </mxGeometry>
        </mxCell>
        <mxCell id="vJepG9H-DPYFJKu3vZ0g-4" value="New Job" style="rounded=1;whiteSpace=wrap;html=1;" vertex="1" parent="WIyWlLk6GJQsqaUBKTNV-1">
          <mxGeometry x="120" y="120" width="80" height="30" as="geometry" />
        </mxCell>
        <mxCell id="vJepG9H-DPYFJKu3vZ0g-7" style="edgeStyle=orthogonalEdgeStyle;rounded=0;orthogonalLoop=1;jettySize=auto;html=1;" edge="1" parent="WIyWlLk6GJQsqaUBKTNV-1" source="vJepG9H-DPYFJKu3vZ0g-6">
          <mxGeometry relative="1" as="geometry">
            <mxPoint x="200" y="210" as="targetPoint" />
            <Array as="points">
              <mxPoint x="590" y="210" />
            </Array>
          </mxGeometry>
        </mxCell>
        <mxCell id="vJepG9H-DPYFJKu3vZ0g-6" value="Create New Job" style="rounded=1;whiteSpace=wrap;html=1;" vertex="1" parent="WIyWlLk6GJQsqaUBKTNV-1">
          <mxGeometry x="530" y="105" width="120" height="60" as="geometry" />
        </mxCell>
        <mxCell id="vJepG9H-DPYFJKu3vZ0g-10" value="" style="edgeStyle=orthogonalEdgeStyle;rounded=0;orthogonalLoop=1;jettySize=auto;html=1;" edge="1" parent="WIyWlLk6GJQsqaUBKTNV-1" source="vJepG9H-DPYFJKu3vZ0g-8" target="vJepG9H-DPYFJKu3vZ0g-9">
          <mxGeometry relative="1" as="geometry" />
        </mxCell>
        <mxCell id="vJepG9H-DPYFJKu3vZ0g-8" value="Blank Job" style="rounded=1;whiteSpace=wrap;html=1;" vertex="1" parent="WIyWlLk6GJQsqaUBKTNV-1">
          <mxGeometry x="125" y="190" width="75" height="30" as="geometry" />
        </mxCell>
        <mxCell id="vJepG9H-DPYFJKu3vZ0g-12" value="" style="edgeStyle=orthogonalEdgeStyle;rounded=0;orthogonalLoop=1;jettySize=auto;html=1;" edge="1" parent="WIyWlLk6GJQsqaUBKTNV-1" source="vJepG9H-DPYFJKu3vZ0g-9" target="vJepG9H-DPYFJKu3vZ0g-11">
          <mxGeometry relative="1" as="geometry" />
        </mxCell>
        <mxCell id="vJepG9H-DPYFJKu3vZ0g-9" value="Enter Customer Details" style="rounded=1;whiteSpace=wrap;html=1;" vertex="1" parent="WIyWlLk6GJQsqaUBKTNV-1">
          <mxGeometry x="106.25" y="280" width="112.5" height="40" as="geometry" />
        </mxCell>
        <mxCell id="vJepG9H-DPYFJKu3vZ0g-19" style="edgeStyle=orthogonalEdgeStyle;rounded=0;orthogonalLoop=1;jettySize=auto;html=1;exitX=0.5;exitY=1;exitDx=0;exitDy=0;" edge="1" parent="WIyWlLk6GJQsqaUBKTNV-1" source="vJepG9H-DPYFJKu3vZ0g-11">
          <mxGeometry relative="1" as="geometry">
            <mxPoint x="590" y="390" as="targetPoint" />
          </mxGeometry>
        </mxCell>
        <mxCell id="vJepG9H-DPYFJKu3vZ0g-11" value="Existing Customer?" style="rhombus;whiteSpace=wrap;html=1;rounded=1;" vertex="1" parent="WIyWlLk6GJQsqaUBKTNV-1">
          <mxGeometry x="550" y="260" width="80" height="80" as="geometry" />
        </mxCell>
        <mxCell id="vJepG9H-DPYFJKu3vZ0g-20" style="edgeStyle=orthogonalEdgeStyle;rounded=0;orthogonalLoop=1;jettySize=auto;html=1;entryX=0.992;entryY=0.617;entryDx=0;entryDy=0;entryPerimeter=0;" edge="1" parent="WIyWlLk6GJQsqaUBKTNV-1" source="vJepG9H-DPYFJKu3vZ0g-15" target="vJepG9H-DPYFJKu3vZ0g-21">
          <mxGeometry relative="1" as="geometry">
            <mxPoint x="240" y="405" as="targetPoint" />
          </mxGeometry>
        </mxCell>
        <mxCell id="vJepG9H-DPYFJKu3vZ0g-15" value="Create New Customer" style="rounded=1;whiteSpace=wrap;html=1;" vertex="1" parent="WIyWlLk6GJQsqaUBKTNV-1">
          <mxGeometry x="530" y="390" width="120" height="30" as="geometry" />
        </mxCell>
        <mxCell id="vJepG9H-DPYFJKu3vZ0g-17" value="NO" style="text;html=1;align=center;verticalAlign=middle;resizable=0;points=[];autosize=1;strokeColor=none;fillColor=none;" vertex="1" parent="WIyWlLk6GJQsqaUBKTNV-1">
          <mxGeometry x="590" y="348" width="40" height="30" as="geometry" />
        </mxCell>
        <mxCell id="vJepG9H-DPYFJKu3vZ0g-21" value="Enter description, frequency, price. " style="rounded=1;whiteSpace=wrap;html=1;" vertex="1" parent="WIyWlLk6GJQsqaUBKTNV-1">
          <mxGeometry x="110" y="370" width="120" height="60" as="geometry" />
        </mxCell>
        <mxCell id="vJepG9H-DPYFJKu3vZ0g-22" value="" style="endArrow=classic;html=1;rounded=0;entryX=1;entryY=0;entryDx=0;entryDy=0;" edge="1" parent="WIyWlLk6GJQsqaUBKTNV-1" target="vJepG9H-DPYFJKu3vZ0g-21">
          <mxGeometry width="50" height="50" relative="1" as="geometry">
            <mxPoint x="569" y="320" as="sourcePoint" />
            <mxPoint x="230" y="323" as="targetPoint" />
            <Array as="points">
              <mxPoint x="570" y="370" />
            </Array>
          </mxGeometry>
        </mxCell>
        <mxCell id="vJepG9H-DPYFJKu3vZ0g-23" value="YES" style="text;html=1;align=center;verticalAlign=middle;resizable=0;points=[];autosize=1;strokeColor=none;fillColor=none;" vertex="1" parent="WIyWlLk6GJQsqaUBKTNV-1">
          <mxGeometry x="425" y="348" width="50" height="30" as="geometry" />
        </mxCell>
        <mxCell id="vJepG9H-DPYFJKu3vZ0g-24" value="" style="endArrow=classic;html=1;rounded=0;exitX=0.5;exitY=1;exitDx=0;exitDy=0;" edge="1" parent="WIyWlLk6GJQsqaUBKTNV-1" source="vJepG9H-DPYFJKu3vZ0g-21">
          <mxGeometry width="50" height="50" relative="1" as="geometry">
            <mxPoint x="190" y="520" as="sourcePoint" />
            <mxPoint x="530" y="480" as="targetPoint" />
            <Array as="points">
              <mxPoint x="170" y="480" />
            </Array>
          </mxGeometry>
        </mxCell>
        <mxCell id="vJepG9H-DPYFJKu3vZ0g-26" style="edgeStyle=orthogonalEdgeStyle;rounded=0;orthogonalLoop=1;jettySize=auto;html=1;" edge="1" parent="WIyWlLk6GJQsqaUBKTNV-1" source="vJepG9H-DPYFJKu3vZ0g-25">
          <mxGeometry relative="1" as="geometry">
            <mxPoint x="230" y="540" as="targetPoint" />
            <Array as="points">
              <mxPoint x="590" y="540" />
            </Array>
          </mxGeometry>
        </mxCell>
        <mxCell id="vJepG9H-DPYFJKu3vZ0g-25" value="Write Job" style="rounded=1;whiteSpace=wrap;html=1;" vertex="1" parent="WIyWlLk6GJQsqaUBKTNV-1">
          <mxGeometry x="530" y="460" width="120" height="40" as="geometry" />
        </mxCell>
        <mxCell id="vJepG9H-DPYFJKu3vZ0g-27" value="Job Created" style="rounded=1;whiteSpace=wrap;html=1;" vertex="1" parent="WIyWlLk6GJQsqaUBKTNV-1">
          <mxGeometry x="110" y="510" width="120" height="40" as="geometry" />
        </mxCell>
      </root>
    </mxGraphModel>
  </diagram>
</mxfile>
